<svg width="79" height="75" viewBox="0 0 79 75" fill="none" xmlns="http://www.w3.org/2000/svg">
<g filter="url(#filter0_d_355_97)">
<path fill-rule="evenodd" clip-rule="evenodd" d="M17.2464 0.952942C17.3418 1.95976 17.9805 4.17318 18.5656 5.52467C18.6556 5.73272 18.9172 5.97956 19.3366 6.25209C19.6856 6.47899 20.3179 6.92734 20.7416 7.24843C21.7315 7.99873 23.76 9.28665 25.3493 10.174C29.1066 12.2718 30.1532 12.8404 31.4983 13.5146C32.312 13.9225 33.8307 14.6985 34.8733 15.2391C36.9211 16.301 37.5925 16.6267 39.1122 17.296C39.6542 17.5347 40.4513 17.9115 40.8836 18.1334C41.3159 18.3551 42.2077 18.795 42.8655 19.1109C44.28 19.7901 44.9511 20.2645 45.5721 21.0236C46.4948 22.1515 46.6991 22.9241 46.7992 25.6624C46.9367 29.4279 47.563 31.1613 49.0609 31.9213C49.5434 32.1661 50.1636 32.2308 50.4077 32.0616C50.5291 31.9775 50.5297 31.9368 50.4133 31.7358C49.0138 29.3201 48.908 28.8212 48.9489 24.8326C48.9706 22.7059 48.9512 22.2592 48.817 21.8066C48.3924 20.3741 47.5664 19.2494 46.3797 18.4881C46.0207 18.2578 44.9388 17.7286 43.9756 17.312C42.3487 16.6086 39.961 15.4974 38.4333 14.7327C38.0773 14.5545 37.1618 14.1139 36.399 13.7537C31.4472 11.4152 25.4007 8.00246 22.9914 6.1861C21.1367 4.78787 18.4983 2.03603 17.6335 0.597892C17.5427 0.446865 17.405 0.323242 17.3275 0.323242C17.21 0.323242 17.1966 0.427621 17.2464 0.952942ZM4.03263 5.47248C3.87766 6.00425 4.30106 8.222 4.91661 10.1028C5.48167 11.8296 6.10193 13.141 6.93755 14.3755C8.18012 16.2113 8.92623 16.9893 10.6084 18.2034C12.3524 19.4621 13.48 20.0669 15.9502 21.0684C19.6354 22.5625 29.1243 25.235 34.9658 26.4239C35.4998 26.5326 36.7777 26.8477 37.8057 27.1243C38.8336 27.4008 39.7283 27.6281 39.7937 27.6295C39.8592 27.6308 40.1523 27.7392 40.4451 27.8704C40.7508 28.0074 41.0005 28.0684 41.0316 28.0138C41.1448 27.8141 40.5856 26.8219 40.0622 26.2939C39.3285 25.5538 38.5046 25.1372 36.1212 24.3009C35.0026 23.9085 33.8169 23.4778 33.4863 23.3439C33.1557 23.21 31.9699 22.7632 30.851 22.3513C26.6309 20.7973 22.4347 19.1511 20.2174 18.1797C19.2003 17.7342 17.8271 17.1335 17.166 16.845C16.0056 16.3385 13.2316 14.9217 12.0723 14.2434C11.7627 14.0624 11.305 13.7146 11.0552 13.4706C10.6664 13.091 10.6305 13.0264 10.8057 13.0225C10.9183 13.02 11.1888 13.0823 11.4067 13.161C11.6247 13.2396 12.115 13.4031 12.4964 13.5243C12.8779 13.6455 14.2926 14.2781 15.6403 14.93C16.988 15.5819 18.5068 16.2776 19.0153 16.4759C20.6167 17.1005 23.9004 18.4313 24.2859 18.6121C24.7747 18.8412 29.3918 20.563 33.9949 22.2328C38.1458 23.7385 39.1637 24.1547 40.0977 24.7277C40.8768 25.2058 40.9763 25.2988 41.4991 26.0371C42.09 26.8715 42.4958 27.8902 42.8693 29.4769C43.0501 30.2451 43.3485 31.2552 43.5325 31.7218C43.9068 32.6713 44.5927 33.7959 45.0595 34.2257C45.5369 34.6652 46.7705 35.2577 47.5748 35.4337C49.5596 35.8683 52.2241 34.6814 52.9834 33.0246C53.1589 32.6419 53.2533 32.0601 53.14 32.0601C53.1172 32.0601 52.9128 32.1966 52.6859 32.3635C51.8017 33.0137 51.0699 33.307 50.2218 33.3513C48.59 33.4363 47.4449 33.0502 46.5864 32.1256C45.7597 31.2352 45.3363 30.2143 44.8108 27.843C44.4282 26.1173 44.1286 25.4554 43.3493 24.615C42.0682 23.2331 41.3083 22.8792 33.625 20.0844C32.557 19.6959 31.1839 19.1777 30.5736 18.9325C29.9633 18.6875 27.9245 17.8717 26.0428 17.1196C20.1296 14.7563 15.6204 12.8361 15.2242 12.5127C15.1733 12.4711 14.5784 12.1818 13.9021 11.8695C13.2258 11.5572 11.9151 10.8898 10.9894 10.3865C8.62525 9.10056 7.44492 8.24668 5.34316 6.30126C4.72576 5.7299 4.19232 5.2619 4.15755 5.2613C4.12288 5.26059 4.06666 5.35571 4.03263 5.47248ZM19.49 7.65638C19.4654 7.6999 19.6427 8.23822 19.8842 8.85261C20.938 11.5342 22.5537 13.6374 24.6095 15.0034C26.2872 16.1182 30.4561 17.8085 37.7398 20.327C39.1383 20.8106 40.6827 21.3771 41.1716 21.5859C42.1185 21.9904 44.2095 23.2219 44.7982 23.722C45.2979 24.1465 45.3877 24.0022 45.1851 23.1009C44.8406 21.5696 43.84 20.7032 40.8059 19.3093C39.1715 18.5583 39.0212 18.4876 38.2483 18.1049C37.9432 17.9537 37.1734 17.5904 36.5377 17.2975C33.5843 15.9368 26.4839 12.1683 23.8236 10.5495C22.249 9.59142 21.5577 9.09985 20.5723 8.23772C19.861 7.61537 19.5944 7.4722 19.49 7.65638ZM57.8512 15.1409C56.4146 15.3572 54.5549 15.9165 53.3307 16.5007C51.8661 17.1996 49.5348 18.6981 49.4244 19.0116C49.3934 19.0996 49.5224 19.3598 49.7366 19.6413C49.9374 19.9051 50.1753 20.2457 50.2653 20.3981C50.3553 20.5504 50.4725 20.6751 50.5256 20.6751C50.5788 20.6751 50.9219 20.4295 51.2879 20.1293C52.3011 19.2984 53.778 18.4151 54.7381 18.0657C56.8202 17.3079 58.4771 16.9547 59.9779 16.9485C60.3473 16.947 60.6147 16.8875 60.7781 16.7705C61.2408 16.439 62.7057 15.2013 62.7051 15.1424C62.7041 15.0494 58.468 15.0482 57.8512 15.1409ZM64.0959 15.9332C64.0433 16.0404 64.0002 16.1902 64.0002 16.266C64.0002 16.342 63.8737 16.6215 63.719 16.8872C63.3736 17.4808 63.4182 17.5607 64.2609 17.8563C66.0323 18.4776 67.861 19.7251 69.2708 21.274C71.1187 23.3043 72.0579 25.1243 72.5128 27.5566C72.6164 28.1108 72.7656 28.7275 72.8443 28.9268C73.0578 29.4684 73.0356 31.3196 72.7967 32.8863C71.8986 38.7796 67.9414 43.7286 62.5932 45.6471C59.5014 46.7563 56.9875 46.9287 54.2461 46.2196C53.2786 45.9693 53.2247 45.9654 53.1172 46.1367C52.9731 46.3661 52.9606 46.3787 52.3263 46.9264C52.0339 47.1789 51.7947 47.4455 51.7947 47.5187C51.7947 47.7842 53.2441 48.3035 54.9385 48.6451C56.1764 48.8947 58.6316 48.8977 59.9317 48.6514C62.7165 48.1236 65.047 47.1144 67.4215 45.408C68.5684 44.5836 71.1577 41.8831 72.0745 40.555C73.3237 38.7454 74.2027 36.5698 74.771 33.8811C75.0475 32.5726 75.0456 32.6219 74.9153 30.1458C74.7874 27.7164 74.803 27.8013 73.9721 25.0075C73.5808 23.6921 72.5185 21.8351 71.3796 20.4761C70.7689 19.7473 69.6359 18.6869 68.716 17.9832C67.5144 17.0639 64.9268 15.7383 64.3339 15.7383C64.2557 15.7383 64.1486 15.826 64.0959 15.9332ZM60.7819 17.98C59.2501 19.7571 58.7099 20.411 58.213 21.0899C57.9136 21.4991 57.3425 22.2192 56.9441 22.6902C56.2308 23.5333 55.6992 24.3586 55.7993 24.4678C55.8274 24.4983 56.2173 24.4697 56.6659 24.4041C57.1143 24.3385 57.6784 24.3001 57.9192 24.3187L58.357 24.3526L57.4849 26.0991C57.0052 27.0598 56.5066 27.9975 56.3766 28.1831C55.9445 28.8004 56.1708 28.933 56.8174 28.4414C57.3106 28.0665 61.3856 23.5906 61.7693 23.0025C62.0986 22.4976 62.1353 22.2266 61.8862 22.1405C61.7414 22.0904 60.5095 22.2664 59.7699 22.4429C59.6555 22.4701 59.5618 22.454 59.5618 22.4071C59.5618 22.36 59.9219 21.6678 60.3619 20.8687C61.1775 19.3878 61.966 17.7238 61.966 17.4836C61.966 17.3987 61.8495 17.3503 61.6454 17.3503C61.3716 17.3503 61.2454 17.4424 60.7819 17.98ZM8.75655 19.2394C8.88369 20.2114 9.67853 21.9511 10.7081 23.511C12.0446 25.5356 14.5868 27.6103 16.98 28.6292C18.4882 29.2713 19.2931 29.477 22.3441 30.0005C23.6639 30.2269 27.9086 30.6474 29.8801 30.747C30.8718 30.7972 33.0563 30.9077 34.7346 30.9928C40.8986 31.305 41.6674 31.3311 41.7822 31.2316C41.9287 31.1048 41.5676 30.3087 41.1927 29.932C40.2033 28.9377 39.3758 28.5988 36.2141 27.8934C34.8409 27.5871 32.8021 27.128 31.6832 26.8732C30.5644 26.6185 29.1704 26.3015 28.5856 26.169C27.2022 25.8553 21.1039 24.2116 19.6164 23.7515C17.7286 23.1675 14.571 21.9945 13.1193 21.338C11.7077 20.6996 9.21232 19.1848 9.02332 18.8517C8.99502 18.8018 8.90931 18.7609 8.83293 18.7609C8.72003 18.7609 8.70569 18.8506 8.75655 19.2394ZM68.8927 29.1419C68.6084 29.2469 67.9426 29.609 67.4132 29.9467C64.9558 31.514 64.8828 31.5865 64.5241 32.8207C64.38 33.3167 64.082 34.1759 63.8621 34.7301C63.4241 35.833 63.0756 36.9034 63.0756 37.1449C63.0756 37.2298 63.1382 37.2992 63.2149 37.2992C63.4905 37.2992 65.9113 35.8728 66.629 35.2875C67.5577 34.5303 68.8303 33.1645 69.6364 32.0601C70.5417 30.8199 70.7582 30.4043 70.8158 29.7963C70.8606 29.324 70.8429 29.2507 70.6488 29.1025C70.3575 28.8802 69.5529 28.8982 68.8927 29.1419ZM16.1026 30.0935C16.1026 30.2099 16.79 31.2965 17.3047 31.9936C18.5388 33.6652 20.6597 35.1951 22.8245 35.9753C25.3274 36.8773 27.0241 36.9667 31.7295 36.4448C34.1842 36.1725 36.8569 35.6519 40.3288 34.7699C42.275 34.2755 42.9207 34.0416 42.987 33.8076C43.0495 33.587 42.4593 32.9963 41.9067 32.726C41.1775 32.3694 40.2668 32.2633 37.9278 32.2624C34.1756 32.2609 25.3871 31.7597 22.8434 31.4022C20.852 31.1222 18.5586 30.6659 17.5821 30.3552C16.6977 30.0738 16.1026 29.9686 16.1026 30.0935ZM71.4266 31.1785C71.323 31.3033 70.9975 31.8077 70.7032 32.2998C70.1126 33.2871 68.782 34.8544 67.7035 35.8332C65.6469 37.6996 62.7076 39.1881 59.6543 39.9093C56.3839 40.6817 55.6149 40.9022 54.5383 41.3764C51.9808 42.5029 50.3074 43.6774 48.133 45.8725C47.7112 46.2984 46.9789 46.9414 46.5058 47.3016C45.1532 48.3313 44.8048 48.7097 44.4586 49.5253C44.1087 50.3503 43.6211 50.8815 42.4039 51.764C41.587 52.3562 41.0901 52.6012 39.4625 53.2138C38.4519 53.5944 35.2664 54.8358 33.8099 55.4169C32.3064 56.0166 28.8305 57.3727 26.1352 58.4108C24.6095 58.9985 22.9731 59.6368 22.4986 59.8292C21.4704 60.2464 18 61.5386 15.3629 62.486C13.3447 63.2111 9.31551 64.7801 8.66029 65.0958C8.20647 65.3145 7.50326 65.9714 7.50326 66.1764C7.50326 66.5177 8.1423 66.3431 12.5427 64.7995C14.1192 64.2466 15.9501 63.6093 16.6112 63.3834C17.2723 63.1576 18.2294 62.8229 18.7379 62.6398C19.2465 62.4565 19.9955 62.1907 20.4023 62.0492C21.3605 61.7157 25.4463 60.203 28.2157 59.1564C29.4109 58.7048 31.533 57.9118 32.9315 57.3942C37.876 55.5644 40.8019 54.3823 41.8948 53.7733C42.1269 53.6439 42.9837 52.9787 43.7988 52.295C44.6139 51.6113 45.5293 50.8507 45.8331 50.6048C46.4734 50.0866 47.2953 49.337 47.956 48.6687C49.047 47.5653 51.9888 45.0114 52.6269 44.6138C54.4263 43.4926 55.9531 42.8602 58.2673 42.2779C62.6874 41.1655 64.807 40.2666 67.0054 38.5721C68.4567 37.4535 70.4919 35.2552 71.1849 34.0576C71.4853 33.5386 71.8901 32.34 72.0046 31.6308C72.1057 31.0043 71.7816 30.7508 71.4266 31.1785ZM54.772 31.9342C54.6734 32.0865 54.4981 32.4153 54.3823 32.6646C54.0579 33.3636 53.398 34.4183 52.9318 34.9832C51.7715 36.3894 50.1898 37.1999 48.6115 37.1969C48.15 37.1961 47.5227 37.1297 47.2176 37.0494C46.2286 36.7892 46.2938 36.7099 46.2862 38.1808C46.2815 39.0962 46.2236 39.7405 46.0844 40.4226C45.5832 42.8791 45.4206 43.8545 45.3954 44.5534L45.3682 45.309L45.7921 45.339C46.3517 45.3786 47.1435 45.0507 47.7038 44.5472C47.9449 44.3306 48.4918 43.8761 48.919 43.5373C49.3462 43.1986 50.0536 42.6056 50.4909 42.2198C51.343 41.4678 52.5899 40.7487 54.1299 40.1209C54.6934 39.8912 54.7556 39.8299 54.9405 39.323C55.0094 39.1339 55.2805 38.5899 55.5426 38.114C55.8048 37.6382 56.2623 36.7501 56.5592 36.1406C56.856 35.531 57.2569 34.7603 57.4499 34.4278C58.5588 32.518 58.5974 32.0163 57.6448 31.8934C57.0727 31.8196 56.9258 31.9171 56.8509 32.42C56.8217 32.6161 56.6581 32.9895 56.4874 33.2496C56.3167 33.5098 55.8068 34.3799 55.3541 35.1834C54.9014 35.9869 54.3746 36.871 54.1834 37.1481C52.6315 39.3967 51.8002 40.5504 51.649 40.6655C51.3488 40.8941 50.5852 41.1436 49.7604 41.2828C49.084 41.3969 48.9067 41.3944 48.489 41.2644C48.2219 41.1814 48.0035 41.0549 48.0035 40.9832C48.0035 40.9116 48.2012 40.7758 48.4427 40.6815C49.3332 40.3339 49.8269 40.0636 50.6851 39.4537C52.058 38.4779 52.9624 37.3721 54.3424 34.9819C54.8382 34.123 55.4041 33.1506 55.5997 32.8209C55.7955 32.4912 55.9556 32.1902 55.9556 32.1519C55.9556 32.0758 55.1793 31.6571 55.0383 31.6571C54.9903 31.6571 54.8705 31.7819 54.772 31.9342ZM62.169 32.0458C62.1027 32.0916 61.9864 32.3884 61.9104 32.7051C61.8345 33.022 61.334 34.2487 60.7983 35.431C59.815 37.601 59.5657 38.4075 59.8782 38.4075C60.1448 38.4075 61.3592 38.0867 61.4746 37.9858C61.5349 37.933 61.6126 37.7456 61.6474 37.5694C61.6822 37.393 61.9171 36.7734 62.1697 36.1924C63.175 33.8786 63.5073 32.6633 63.2677 32.1756C63.182 32.001 63.0776 31.9597 62.7256 31.9609C62.4858 31.9618 62.2353 32 62.169 32.0458ZM59.4913 32.144C59.4271 32.1884 59.2999 32.5163 59.2086 32.8729C59.101 33.2931 58.6594 34.242 57.9528 35.5715C57.3535 36.6994 56.7633 37.8555 56.6414 38.1407C56.4208 38.657 56.3526 39.1576 56.4902 39.2503C56.5938 39.32 57.9279 39.0553 58.1625 38.9184C58.271 38.8551 58.3598 38.7625 58.3598 38.7123C58.3598 38.6041 58.9504 37.2214 59.8888 35.1329C60.6669 33.401 60.8427 32.7603 60.6344 32.4141C60.4567 32.1184 59.7646 31.9549 59.4913 32.144ZM42.8254 35.2773C42.2898 35.3757 39.4229 36.1681 39.1485 36.2936C38.8117 36.4478 34.9479 37.272 33.4863 37.5015C32.7489 37.6173 31.7711 37.7758 31.3134 37.8537C30.3948 38.01 28.0021 38.206 27.0117 38.206C26.6628 38.206 26.3504 38.2536 26.3174 38.3116C26.2381 38.4514 26.7362 38.9525 27.5317 39.533C29.3496 40.8598 31.5009 41.6316 33.3813 41.6316C34.3005 41.6316 35.9841 41.3361 37.1523 40.9697C39.2969 40.2972 42.8627 38.2004 44.2256 36.8102C44.6524 36.375 44.9521 35.9881 44.9521 35.8726C44.9521 35.4601 43.7156 35.114 42.8254 35.2773ZM44.0006 38.8425C43.0648 39.6126 41.7716 40.4108 40.9496 40.7255C40.6845 40.827 40.4551 40.976 40.4399 41.0565C40.3618 41.47 42.1121 42.0851 43.1587 42.0119C44.5857 41.9122 45.181 41.2101 45.292 39.4964C45.3574 38.4862 45.2943 38.1053 45.0612 38.1053C44.9705 38.1053 44.4932 38.437 44.0006 38.8425ZM38.7569 42.5686C38.4263 42.6995 36.866 43.3754 35.2894 44.0705C33.7129 44.7656 32.0002 45.4993 31.4835 45.701C30.9669 45.9028 30.2179 46.2298 29.8191 46.4279C29.4204 46.6258 28.6989 46.9389 28.2157 47.1233C27.0198 47.58 25.6145 48.1661 24.2859 48.7626C23.6756 49.0365 22.9475 49.3189 22.6677 49.3898C22.388 49.4608 21.9303 49.6305 21.6506 49.7669C21.3709 49.9032 20.8092 50.1405 20.4023 50.294C19.9955 50.4477 18.976 50.8676 18.1369 51.2273C17.2978 51.587 16.1951 52.0535 15.6865 52.2639C15.178 52.4744 14.3874 52.8149 13.9297 53.0206C13.472 53.2263 12.931 53.4518 12.7276 53.5216C12.5242 53.5914 11.7336 53.9198 10.9708 54.2513C10.2079 54.5827 9.06363 55.0689 8.42793 55.3316C6.88623 55.9687 6.20605 56.3545 5.85394 56.7914C5.60964 57.0947 5.56147 57.2367 5.56147 57.6547C5.56147 57.9298 5.60409 58.1549 5.65625 58.1549C5.7084 58.1549 6.03083 58.0016 6.37286 57.8142C7.16335 57.381 9.70054 56.2101 11.2019 55.5855C12.5327 55.0319 13.3656 54.6711 14.3458 54.2237C14.7272 54.0495 15.6426 53.6887 16.38 53.4218C17.8799 52.8789 20.1151 52.0013 21.5119 51.4066C22.0205 51.1901 22.7487 50.9005 23.1301 50.763C24.7718 50.1713 26.8811 49.3642 28.1695 48.8345C29.4912 48.2913 30.3174 47.9663 33.9024 46.5794C37.1532 45.3218 38.913 44.5861 39.4069 44.2782C40.0835 43.8565 40.6987 43.2283 40.6987 42.9592C40.6987 42.4039 39.6865 42.2003 38.7569 42.5686ZM37.6011 46.8166C37.5502 46.836 36.8428 47.0883 36.0291 47.3772C35.2154 47.6661 33.8423 48.1953 32.9777 48.5531C32.1132 48.911 31.2834 49.2449 31.1339 49.2952C30.9843 49.3454 30.5058 49.5434 30.0705 49.7354C29.6352 49.9273 28.5925 50.3618 27.7534 50.701C24.2839 52.1034 23.7929 52.3062 23.1301 52.6095C22.7487 52.7841 22.1245 53.0566 21.7431 53.215C21.3617 53.3734 20.5503 53.7391 19.94 54.0277C19.3297 54.3164 18.4975 54.6773 18.0907 54.83C17.6838 54.9826 16.8724 55.3228 16.2876 55.5858C15.7027 55.8489 14.8913 56.2104 14.4845 56.3893C13.8762 56.6568 8.95646 59.2442 7.4108 60.1096C6.90121 60.3949 6.6117 60.8684 6.76103 61.1723C6.81929 61.291 6.95531 61.379 7.08069 61.379C7.31019 61.379 8.35617 60.951 10.5084 59.9763C11.2204 59.6539 12.4271 59.1287 13.1899 58.8091C13.9528 58.4895 15.2427 57.9356 16.0564 57.5781C17.9058 56.7655 19.6775 56.0259 20.8184 55.5899C22.249 55.0433 25.0329 53.9461 25.6525 53.6847C27.7976 52.78 30.3801 51.8142 34.411 50.4092C35.1993 50.1344 36.5666 49.6339 37.4493 49.2969C38.3321 48.96 39.0707 48.6842 39.0906 48.6842C39.2216 48.6842 39.0783 47.8348 38.8695 47.3744L38.6182 46.8203L38.1559 46.8008C37.9016 46.79 37.6519 46.7971 37.6011 46.8166ZM41.2997 49.3328C40.2855 49.4831 39.4744 49.767 38.2131 50.4132C37.6852 50.6837 35.8128 51.4303 34.0521 52.0724C32.2916 52.7144 30.3309 53.4587 29.6952 53.7263C27.4778 54.6601 26.5454 55.0362 25.2353 55.5257C24.5097 55.7968 23.708 56.1185 23.4537 56.2408C23.1994 56.363 22.3672 56.71 21.6044 57.0119C19.5054 57.8424 18.1149 58.443 17.7857 58.661C17.4366 58.8923 17.4141 59.1099 17.6804 59.6786C17.8264 59.9906 17.9076 60.0689 18.0271 60.0133C18.3731 59.8522 20.2444 59.1328 20.6335 59.0113C20.8623 58.9398 21.6321 58.6455 22.3441 58.3573C23.0561 58.0691 24.463 57.5212 25.4705 57.1398C26.4779 56.7585 27.3405 56.4207 27.3872 56.3892C27.4804 56.3265 30.8706 55.0377 32.5616 54.4222C33.1465 54.2094 34.4156 53.7333 35.3819 53.3642C36.3481 52.9953 37.326 52.6289 37.5548 52.55C38.9921 52.0546 42.4627 50.3957 42.8485 50.0197C43.0634 49.8103 43.0544 49.4222 42.8315 49.2922C42.6153 49.1662 42.3813 49.1724 41.2997 49.3328Z" fill="white"/>
</g>
<defs>
<filter id="filter0_d_355_97" x="0.000488281" y="0.323242" width="79" height="74" filterUnits="userSpaceOnUse" color-interpolation-filters="sRGB">
<feFlood flood-opacity="0" result="BackgroundImageFix"/>
<feColorMatrix in="SourceAlpha" type="matrix" values="0 0 0 0 0 0 0 0 0 0 0 0 0 0 0 0 0 0 127 0" result="hardAlpha"/>
<feOffset dy="4"/>
<feGaussianBlur stdDeviation="2"/>
<feComposite in2="hardAlpha" operator="out"/>
<feColorMatrix type="matrix" values="0 0 0 0 0 0 0 0 0 0 0 0 0 0 0 0 0 0 0.25 0"/>
<feBlend mode="normal" in2="BackgroundImageFix" result="effect1_dropShadow_355_97"/>
<feBlend mode="normal" in="SourceGraphic" in2="effect1_dropShadow_355_97" result="shape"/>
</filter>
</defs>
</svg>
