<svg width="555" height="469" viewBox="0 0 555 469" fill="none" xmlns="http://www.w3.org/2000/svg">
<path d="M115.417 237.882L256.511 236.36L256.4 226.116L87.0877 227.942L87.1984 238.187L115.417 237.882Z" fill="white" stroke="white" stroke-width="0.2"/>
<path d="M171.076 196.703L258.033 227.923L261.495 218.282L157.147 180.817L153.684 190.459L171.076 196.703Z" fill="white" stroke="white" stroke-width="0.2"/>
<path d="M211.244 148.906L268.518 221.399L276.558 215.048L207.829 128.058L199.789 134.408L211.244 148.906Z" fill="white" stroke="white" stroke-width="0.2"/>
<path d="M269.205 92.2614L270.492 220.103L280.737 220L279.193 66.59L268.948 66.6929L269.205 92.2614Z" fill="white" stroke="white" stroke-width="0.2"/>
<path d="M85.1795 256.389L130.181 296.066L136.958 288.382L82.9552 240.769L76.1787 248.453L85.1795 256.389Z" fill="white" stroke="white" stroke-width="0.2"/>
<path d="M241.029 249.665L148.373 300.578L143.439 291.599L254.626 230.504L259.56 239.482L241.029 249.665Z" fill="white" stroke="white" stroke-width="0.2"/>
<path d="M133.273 225.381L133.209 245.87L143.439 251.025L158.807 251.073L169.084 240.86L169.133 225.493L158.919 215.217L143.551 215.169L133.289 220.259L133.273 225.381Z" fill="white"/>
<path d="M133.273 225.381L133.209 245.87L143.439 251.025L158.807 251.073L169.084 240.86L169.133 225.493L158.919 215.217L143.551 215.169L133.289 220.259L133.273 225.381Z" fill="white"/>
<path d="M133.273 225.381L133.209 245.87L143.439 251.025L158.807 251.073L169.084 240.86L169.133 225.493L158.919 215.217L143.551 215.169L133.289 220.259L133.273 225.381Z" stroke="white" stroke-width="0.2"/>
<path d="M206.679 113.832L193.63 87.0791L184.421 91.5698L200.08 123.673L209.289 119.183L206.679 113.832Z" fill="white" stroke="white" stroke-width="0.2"/>
<path d="M207.79 70.7129L259.284 55.9483L256.46 46.1007L194.667 63.8182L197.491 73.6659L207.79 70.7129Z" fill="white" stroke="white" stroke-width="0.2"/>
<path d="M137.638 111.485L180.976 80.0002L174.954 71.7123L122.947 109.494L128.97 117.782L137.638 111.485Z" fill="white" stroke="white" stroke-width="0.2"/>
<path d="M86.2291 172.897L116.541 128.732L108.093 122.935L71.7193 175.934L80.1668 181.73L86.2291 172.897Z" fill="white" stroke="white" stroke-width="0.2"/>
<path d="M148.136 172.897L117.825 128.732L126.272 122.935L162.646 175.934L154.198 181.73L148.136 172.897Z" fill="white" stroke="white" stroke-width="0.2"/>
<path d="M82.6652 238.537L86.2839 185.095L76.0619 184.403L71.7193 248.534L81.9413 249.226L82.6652 238.537Z" fill="white" stroke="white" stroke-width="0.2"/>
<path d="M106.529 224.243L153.513 198.51L148.591 189.525L92.2105 220.404L97.1325 229.389L106.529 224.243Z" fill="white" stroke="white" stroke-width="0.2"/>
<path d="M266.386 35.8561H286.877L292 46.1007V61.4676L281.754 71.7122H266.386L256.14 61.4676V46.1007L261.263 35.8561H266.386Z" fill="white"/>
<path d="M266.386 35.8561H286.877L292 46.1007V61.4676L281.754 71.7122H266.386L256.14 61.4676V46.1007L261.263 35.8561H266.386Z" fill="white"/>
<path d="M266.386 35.8561H286.877L292 46.1007V61.4676L281.754 71.7122H266.386L256.14 61.4676V46.1007L261.263 35.8561H266.386Z" stroke="white" stroke-width="0.2"/>
<path d="M266.386 35.8561H286.877L292 46.1007V61.4676L281.754 71.7122H266.386L256.14 61.4676V46.1007L261.263 35.8561H266.386Z" fill="white"/>
<path d="M266.386 35.8561H286.877L292 46.1007V61.4676L281.754 71.7122H266.386L256.14 61.4676V46.1007L261.263 35.8561H266.386Z" fill="white"/>
<path d="M266.386 35.8561H286.877L292 46.1007V61.4676L281.754 71.7122H266.386L256.14 61.4676V46.1007L261.263 35.8561H266.386Z" stroke="white" stroke-width="0.2"/>
<path d="M266.386 35.8561H286.877L292 46.1007V61.4676L281.754 71.7122H266.386L256.14 61.4676V46.1007L261.263 35.8561H266.386Z" fill="white"/>
<path d="M266.386 35.8561H286.877L292 46.1007V61.4676L281.754 71.7122H266.386L256.14 61.4676V46.1007L261.263 35.8561H266.386Z" fill="white"/>
<path d="M266.386 35.8561H286.877L292 46.1007V61.4676L281.754 71.7122H266.386L256.14 61.4676V46.1007L261.263 35.8561H266.386Z" stroke="white" stroke-width="0.2"/>
<path d="M261.263 210.014H281.754L286.877 220.259V235.626L276.632 245.871H261.263L251.018 235.626V220.259L256.14 210.014H261.263Z" fill="white"/>
<path d="M261.263 210.014H281.754L286.877 220.259V235.626L276.632 245.871H261.263L251.018 235.626V220.259L256.14 210.014H261.263Z" fill="white"/>
<path d="M261.263 210.014H281.754L286.877 220.259V235.626L276.632 245.871H261.263L251.018 235.626V220.259L256.14 210.014H261.263Z" stroke="white" stroke-width="0.2"/>
<path d="M212.366 117.342L194.108 126.643L194.195 138.097L201.173 151.789L214.952 156.266L228.646 149.289L233.124 135.51L226.146 121.819L216.93 115.016L212.366 117.342Z" fill="white"/>
<path d="M212.366 117.342L194.108 126.643L194.195 138.097L201.173 151.789L214.952 156.266L228.646 149.289L233.124 135.51L226.146 121.819L216.93 115.016L212.366 117.342Z" fill="white"/>
<path d="M212.366 117.342L194.108 126.643L194.195 138.097L201.173 151.789L214.952 156.266L228.646 149.289L233.124 135.51L226.146 121.819L216.93 115.016L212.366 117.342Z" stroke="white" stroke-width="0.2"/>
<path d="M181.629 55.8741L163.371 65.1757L163.459 76.6292L170.436 90.3216L184.216 94.7985L197.909 87.8219L202.387 74.0429L195.41 60.351L186.194 53.5486L181.629 55.8741Z" fill="white"/>
<path d="M181.629 55.8741L163.371 65.1757L163.459 76.6292L170.436 90.3216L184.216 94.7985L197.909 87.8219L202.387 74.0429L195.41 60.351L186.194 53.5486L181.629 55.8741Z" fill="white"/>
<path d="M181.629 55.8741L163.371 65.1757L163.459 76.6292L170.436 90.3216L184.216 94.7985L197.909 87.8219L202.387 74.0429L195.41 60.351L186.194 53.5486L181.629 55.8741Z" stroke="white" stroke-width="0.2"/>
<path d="M117.239 98.6484L101.314 111.543L103.781 122.728L113.453 134.67L127.863 136.185L139.807 126.514L141.321 112.105L131.649 100.163L121.22 95.4249L117.239 98.6484Z" fill="white"/>
<path d="M117.239 98.6484L101.314 111.543L103.781 122.728L113.453 134.67L127.863 136.185L139.807 126.514L141.321 112.105L131.649 100.163L121.22 95.4249L117.239 98.6484Z" fill="white"/>
<path d="M117.239 98.6484L101.314 111.543L103.781 122.728L113.453 134.67L127.863 136.185L139.807 126.514L141.321 112.105L131.649 100.163L121.22 95.4249L117.239 98.6484Z" stroke="white" stroke-width="0.2"/>
<path d="M143.298 309.819L122.919 307.677L118.896 296.953L120.502 281.67L131.762 272.553L147.047 274.159L156.165 285.418L154.559 300.701L148.393 310.354L143.298 309.819Z" fill="white"/>
<path d="M143.298 309.819L122.919 307.677L118.896 296.953L120.502 281.67L131.762 272.553L147.047 274.159L156.165 285.418L154.559 300.701L148.393 310.354L143.298 309.819Z" fill="white"/>
<path d="M143.298 309.819L122.919 307.677L118.896 296.953L120.502 281.67L131.762 272.553L147.047 274.159L156.165 285.418L154.559 300.701L148.393 310.354L143.298 309.819Z" stroke="white" stroke-width="0.2"/>
<path d="M61.4737 240.748V220.259L71.7193 215.137H87.0877L97.3333 225.381V240.748L87.0877 250.993H71.7193L61.4737 245.871V240.748Z" fill="white"/>
<path d="M61.4737 240.748V220.259L71.7193 215.137H87.0877L97.3333 225.381V240.748L87.0877 250.993H71.7193L61.4737 245.871V240.748Z" fill="white"/>
<path d="M61.4737 240.748V220.259L71.7193 215.137H87.0877L97.3333 225.381V240.748L87.0877 250.993H71.7193L61.4737 245.871V240.748Z" stroke="white" stroke-width="0.2"/>
<path d="M66.3608 168.848L62.4511 188.961L71.5313 195.943L86.6169 198.875L98.6294 190.774L101.562 175.689L93.4595 163.678L78.3733 160.746L67.3388 163.819L66.3608 168.848Z" fill="white"/>
<path d="M66.3608 168.848L62.4511 188.961L71.5313 195.943L86.6169 198.875L98.6294 190.774L101.562 175.689L93.4595 163.678L78.3733 160.746L67.3388 163.819L66.3608 168.848Z" fill="white"/>
<path d="M66.3608 168.848L62.4511 188.961L71.5313 195.943L86.6169 198.875L98.6294 190.774L101.562 175.689L93.4595 163.678L78.3733 160.746L67.3388 163.819L66.3608 168.848Z" stroke="white" stroke-width="0.2"/>
<path d="M141.46 176.3L136.777 196.247L145.581 203.575L160.543 207.088L172.858 199.455L176.371 184.495L168.738 172.18L153.776 168.668L142.631 171.313L141.46 176.3Z" fill="white"/>
<path d="M141.46 176.3L136.777 196.247L145.581 203.575L160.543 207.088L172.858 199.455L176.371 184.495L168.738 172.18L153.776 168.668L142.631 171.313L141.46 176.3Z" fill="white"/>
<path d="M141.46 176.3L136.777 196.247L145.581 203.575L160.543 207.088L172.858 199.455L176.371 184.495L168.738 172.18L153.776 168.668L142.631 171.313L141.46 176.3Z" stroke="white" stroke-width="0.2"/>
<path d="M432.724 237.882L291.63 236.36L291.74 226.116L461.053 227.942L460.942 238.187L432.724 237.882Z" fill="white" stroke="white" stroke-width="0.2"/>
<path d="M377.065 196.703L290.108 227.923L286.645 218.282L390.994 180.817L394.456 190.459L377.065 196.703Z" fill="white" stroke="white" stroke-width="0.2"/>
<path d="M336.896 148.906L279.622 221.399L271.583 215.048L340.311 128.058L348.351 134.408L336.896 148.906Z" fill="white" stroke="white" stroke-width="0.2"/>
<path d="M278.935 92.2614L277.648 220.103L267.403 220L268.947 66.59L279.192 66.6929L278.935 92.2614Z" fill="white" stroke="white" stroke-width="0.2"/>
<path d="M462.961 256.389L417.959 296.066L411.183 288.382L465.185 240.769L471.962 248.453L462.961 256.389Z" fill="white" stroke="white" stroke-width="0.2"/>
<path d="M402.404 329.22L315.143 430.876L307.368 424.204L412.081 302.216L419.856 308.888L402.404 329.22Z" fill="white" stroke="white" stroke-width="0.2"/>
<path d="M328.545 341.071L322.715 429.531L312.491 428.857L319.487 322.705L329.711 323.379L328.545 341.071Z" fill="white" stroke="white" stroke-width="0.2"/>
<path d="M341.686 296.502L412.545 289.583L413.541 299.779L328.51 308.081L327.514 297.885L341.686 296.502Z" fill="white" stroke="white" stroke-width="0.2"/>
<path d="M267.463 250.912L229.542 331.046L220.281 326.665L265.786 230.504L275.048 234.885L267.463 250.912Z" fill="white" stroke="white" stroke-width="0.2"/>
<path d="M283.851 253.359L283.83 342.011L273.584 342.008L273.609 235.626L283.855 235.628L283.851 253.359Z" fill="white" stroke="white" stroke-width="0.2"/>
<path d="M284.714 229.396L333.624 303.338L325.079 308.99L266.386 220.259L274.931 214.608L284.714 229.396Z" fill="white" stroke="white" stroke-width="0.2"/>
<path d="M291.995 351.827L315.222 429.142L305.41 432.089L277.537 339.312L287.35 336.364L291.995 351.827Z" fill="white" stroke="white" stroke-width="0.2"/>
<path d="M227.499 326.025L270.905 342.626L267.245 352.194L215.158 332.274L218.818 322.705L227.499 326.025Z" fill="white" stroke="white" stroke-width="0.2"/>
<path d="M307.112 249.665L399.767 300.578L404.702 291.599L293.515 230.504L288.581 239.482L307.112 249.665Z" fill="white" stroke="white" stroke-width="0.2"/>
<path d="M414.867 225.381L414.932 245.87L404.702 251.025L389.333 251.073L379.056 240.86L379.008 225.493L389.221 215.217L404.59 215.169L414.851 220.259L414.867 225.381Z" fill="white"/>
<path d="M414.867 225.381L414.932 245.87L404.702 251.025L389.333 251.073L379.056 240.86L379.008 225.493L389.221 215.217L404.59 215.169L414.851 220.259L414.867 225.381Z" fill="white"/>
<path d="M414.867 225.381L414.932 245.87L404.702 251.025L389.333 251.073L379.056 240.86L379.008 225.493L389.221 215.217L404.59 215.169L414.851 220.259L414.867 225.381Z" stroke="white" stroke-width="0.2"/>
<path d="M341.461 113.832L354.511 87.0791L363.719 91.5698L348.06 123.673L338.851 119.183L341.461 113.832Z" fill="white" stroke="white" stroke-width="0.2"/>
<path d="M340.351 70.7129L288.856 55.9483L291.68 46.1007L353.474 63.8182L350.649 73.6659L340.351 70.7129Z" fill="white" stroke="white" stroke-width="0.2"/>
<path d="M410.503 111.485L367.164 80.0002L373.186 71.7123L425.193 109.494L419.171 117.782L410.503 111.485Z" fill="white" stroke="white" stroke-width="0.2"/>
<path d="M461.911 172.897L431.6 128.732L440.048 122.935L476.421 175.934L467.974 181.73L461.911 172.897Z" fill="white" stroke="white" stroke-width="0.2"/>
<path d="M400.005 172.897L430.316 128.732L421.868 122.935L385.494 175.934L393.942 181.73L400.005 172.897Z" fill="white" stroke="white" stroke-width="0.2"/>
<path d="M465.475 238.537L461.856 185.095L472.078 184.403L476.421 248.534L466.199 249.226L465.475 238.537Z" fill="white" stroke="white" stroke-width="0.2"/>
<path d="M441.611 224.243L394.628 198.51L399.55 189.525L455.93 220.404L451.008 229.389L441.611 224.243Z" fill="white" stroke="white" stroke-width="0.2"/>
<path d="M281.754 35.8561H261.263L256.14 46.1007V61.4676L266.386 71.7122H281.754L292 61.4676V46.1007L286.877 35.8561H281.754Z" fill="white"/>
<path d="M281.754 35.8561H261.263L256.14 46.1007V61.4676L266.386 71.7122H281.754L292 61.4676V46.1007L286.877 35.8561H281.754Z" fill="white"/>
<path d="M281.754 35.8561H261.263L256.14 46.1007V61.4676L266.386 71.7122H281.754L292 61.4676V46.1007L286.877 35.8561H281.754Z" stroke="white" stroke-width="0.2"/>
<path d="M281.754 35.8561H261.263L256.14 46.1007V61.4676L266.386 71.7122H281.754L292 61.4676V46.1007L286.877 35.8561H281.754Z" fill="white"/>
<path d="M281.754 35.8561H261.263L256.14 46.1007V61.4676L266.386 71.7122H281.754L292 61.4676V46.1007L286.877 35.8561H281.754Z" fill="white"/>
<path d="M281.754 35.8561H261.263L256.14 46.1007V61.4676L266.386 71.7122H281.754L292 61.4676V46.1007L286.877 35.8561H281.754Z" stroke="white" stroke-width="0.2"/>
<path d="M281.754 35.8561H261.263L256.14 46.1007V61.4676L266.386 71.7122H281.754L292 61.4676V46.1007L286.877 35.8561H281.754Z" fill="white"/>
<path d="M281.754 35.8561H261.263L256.14 46.1007V61.4676L266.386 71.7122H281.754L292 61.4676V46.1007L286.877 35.8561H281.754Z" fill="white"/>
<path d="M281.754 35.8561H261.263L256.14 46.1007V61.4676L266.386 71.7122H281.754L292 61.4676V46.1007L286.877 35.8561H281.754Z" stroke="white" stroke-width="0.2"/>
<path d="M286.877 210.014H266.386L261.263 220.259V235.626L271.509 245.871H286.877L297.123 235.626V220.259L292 210.014H286.877Z" fill="white"/>
<path d="M286.877 210.014H266.386L261.263 220.259V235.626L271.509 245.871H286.877L297.123 235.626V220.259L292 210.014H286.877Z" fill="white"/>
<path d="M286.877 210.014H266.386L261.263 220.259V235.626L271.509 245.871H286.877L297.123 235.626V220.259L292 210.014H286.877Z" stroke="white" stroke-width="0.2"/>
<path d="M335.774 117.342L354.032 126.643L353.945 138.097L346.968 151.789L333.188 156.266L319.494 149.289L315.017 135.51L321.994 121.819L331.21 115.016L335.774 117.342Z" fill="white"/>
<path d="M335.774 117.342L354.032 126.643L353.945 138.097L346.968 151.789L333.188 156.266L319.494 149.289L315.017 135.51L321.994 121.819L331.21 115.016L335.774 117.342Z" fill="white"/>
<path d="M335.774 117.342L354.032 126.643L353.945 138.097L346.968 151.789L333.188 156.266L319.494 149.289L315.017 135.51L321.994 121.819L331.21 115.016L335.774 117.342Z" stroke="white" stroke-width="0.2"/>
<path d="M366.511 55.8741L384.769 65.1757L384.682 76.6292L377.705 90.3216L363.925 94.7985L350.231 87.8219L345.754 74.0429L352.731 60.351L361.947 53.5486L366.511 55.8741Z" fill="white"/>
<path d="M366.511 55.8741L384.769 65.1757L384.682 76.6292L377.705 90.3216L363.925 94.7985L350.231 87.8219L345.754 74.0429L352.731 60.351L361.947 53.5486L366.511 55.8741Z" fill="white"/>
<path d="M366.511 55.8741L384.769 65.1757L384.682 76.6292L377.705 90.3216L363.925 94.7985L350.231 87.8219L345.754 74.0429L352.731 60.351L361.947 53.5486L366.511 55.8741Z" stroke="white" stroke-width="0.2"/>
<path d="M430.901 98.6484L446.826 111.543L444.359 122.728L434.688 134.67L420.278 136.185L408.334 126.514L406.82 112.105L416.491 100.163L426.92 95.4249L430.901 98.6484Z" fill="white"/>
<path d="M430.901 98.6484L446.826 111.543L444.359 122.728L434.688 134.67L420.278 136.185L408.334 126.514L406.82 112.105L416.491 100.163L426.92 95.4249L430.901 98.6484Z" fill="white"/>
<path d="M430.901 98.6484L446.826 111.543L444.359 122.728L434.688 134.67L420.278 136.185L408.334 126.514L406.82 112.105L416.491 100.163L426.92 95.4249L430.901 98.6484Z" stroke="white" stroke-width="0.2"/>
<path d="M404.842 309.819L425.221 307.677L429.245 296.953L427.639 281.67L416.378 272.553L401.094 274.159L391.975 285.418L393.582 300.701L399.748 310.354L404.842 309.819Z" fill="white"/>
<path d="M404.842 309.819L425.221 307.677L429.245 296.953L427.639 281.67L416.378 272.553L401.094 274.159L391.975 285.418L393.582 300.701L399.748 310.354L404.842 309.819Z" fill="white"/>
<path d="M404.842 309.819L425.221 307.677L429.245 296.953L427.639 281.67L416.378 272.553L401.094 274.159L391.975 285.418L393.582 300.701L399.748 310.354L404.842 309.819Z" stroke="white" stroke-width="0.2"/>
<path d="M268.145 366.113L288.583 367.59L294.43 357.742L295.538 342.415L286.058 331.458L270.729 330.351L259.771 339.83L258.664 355.157L263.035 365.744L268.145 366.113Z" fill="white"/>
<path d="M268.145 366.113L288.583 367.59L294.43 357.742L295.538 342.415L286.058 331.458L270.729 330.351L259.771 339.83L258.664 355.157L263.035 365.744L268.145 366.113Z" fill="white"/>
<path d="M268.145 366.113L288.583 367.59L294.43 357.742L295.538 342.415L286.058 331.458L270.729 330.351L259.771 339.83L258.664 355.157L263.035 365.744L268.145 366.113Z" stroke="white" stroke-width="0.2"/>
<path d="M329.785 325.689L347.228 314.937L346.213 303.528L338.148 290.447L324.049 287.103L310.967 295.167L307.622 309.264L315.687 322.344L325.424 328.377L329.785 325.689Z" fill="white"/>
<path d="M329.785 325.689L347.228 314.937L346.213 303.528L338.148 290.447L324.049 287.103L310.967 295.167L307.622 309.264L315.687 322.344L325.424 328.377L329.785 325.689Z" fill="white"/>
<path d="M329.785 325.689L347.228 314.937L346.213 303.528L338.148 290.447L324.049 287.103L310.967 295.167L307.622 309.264L315.687 322.344L325.424 328.377L329.785 325.689Z" stroke="white" stroke-width="0.2"/>
<path d="M209.166 344.282L227.92 352.539L236.737 345.227L242.931 331.163L237.682 317.659L223.617 311.466L210.111 316.714L203.918 330.778L204.478 342.218L209.166 344.282Z" fill="white"/>
<path d="M209.166 344.282L227.92 352.539L236.737 345.227L242.931 331.163L237.682 317.659L223.617 311.466L210.111 316.714L203.918 330.778L204.478 342.218L209.166 344.282Z" fill="white"/>
<path d="M209.166 344.282L227.92 352.539L236.737 345.227L242.931 331.163L237.682 317.659L223.617 311.466L210.111 316.714L203.918 330.778L204.478 342.218L209.166 344.282Z" stroke="white" stroke-width="0.2"/>
<path d="M486.667 240.748V220.259L476.421 215.137H461.053L450.807 225.381V240.748L461.053 250.993H476.421L486.667 245.871V240.748Z" fill="white"/>
<path d="M486.667 240.748V220.259L476.421 215.137H461.053L450.807 225.381V240.748L461.053 250.993H476.421L486.667 245.871V240.748Z" fill="white"/>
<path d="M486.667 240.748V220.259L476.421 215.137H461.053L450.807 225.381V240.748L461.053 250.993H476.421L486.667 245.871V240.748Z" stroke="white" stroke-width="0.2"/>
<path d="M481.779 168.848L485.689 188.961L476.609 195.943L461.523 198.875L449.511 190.774L446.579 175.689L454.681 163.678L469.767 160.746L480.802 163.819L481.779 168.848Z" fill="white"/>
<path d="M481.779 168.848L485.689 188.961L476.609 195.943L461.523 198.875L449.511 190.774L446.579 175.689L454.681 163.678L469.767 160.746L480.802 163.819L481.779 168.848Z" fill="white"/>
<path d="M481.779 168.848L485.689 188.961L476.609 195.943L461.523 198.875L449.511 190.774L446.579 175.689L454.681 163.678L469.767 160.746L480.802 163.819L481.779 168.848Z" stroke="white" stroke-width="0.2"/>
<path d="M406.68 176.3L411.363 196.247L402.559 203.575L387.598 207.088L375.282 199.455L371.769 184.495L379.402 172.18L394.364 168.668L405.509 171.313L406.68 176.3Z" fill="white"/>
<path d="M406.68 176.3L411.363 196.247L402.559 203.575L387.598 207.088L375.282 199.455L371.769 184.495L379.402 172.18L394.364 168.668L405.509 171.313L406.68 176.3Z" fill="white"/>
<path d="M406.68 176.3L411.363 196.247L402.559 203.575L387.598 207.088L375.282 199.455L371.769 184.495L379.402 172.18L394.364 168.668L405.509 171.313L406.68 176.3Z" stroke="white" stroke-width="0.2"/>
<path d="M312.491 440.518C320.979 440.518 327.86 433.638 327.86 425.151C327.86 416.664 320.979 409.784 312.491 409.784C304.003 409.784 297.123 416.664 297.123 425.151C297.123 433.638 304.003 440.518 312.491 440.518Z" fill="white"/>
<path d="M554.539 234.175C554.539 363.506 430.399 468.349 277.268 468.349C124.137 468.349 0 363.506 0 234.175C0 104.843 124.137 0 277.268 0C430.399 0 554.539 104.843 554.539 234.175ZM20.9962 234.175C20.9962 353.712 135.733 450.616 277.268 450.616C418.804 450.616 533.54 353.712 533.54 234.175C533.54 114.637 418.804 17.7329 277.268 17.7329C135.733 17.7329 20.9962 114.637 20.9962 234.175Z" fill="white"/>
</svg>
