<svg width="568" height="153" viewBox="0 0 568 153" fill="none" xmlns="http://www.w3.org/2000/svg">
<path d="M0 150.596V0H20.6961L41.1874 78.4737L43.0316 85.44H44.261V0H64.5474V150.596H45.9004L23.36 72.122L21.5158 65.1557H20.2863V150.596H0ZM103.385 152.235C95.1198 152.235 88.5969 149.402 83.8158 143.732C79.1028 137.995 76.7463 130.993 76.7463 122.73V66.385C76.7463 57.6413 79.1028 50.5418 83.8158 45.0763C88.5288 39.6108 95.1198 36.8806 103.59 36.8806C109.122 36.8806 113.869 38.1458 117.831 40.6711C121.861 43.1964 124.935 46.6488 127.052 51.0181C129.17 55.3209 130.228 60.2383 130.228 65.7704V98.3482H96.0081V122.73C96.0081 125.532 96.6228 128.124 97.8523 130.516C99.1499 132.837 101.062 133.999 103.59 133.999C106.254 133.999 108.132 132.908 109.225 130.721C110.386 128.534 110.967 125.87 110.967 122.73V110.437H130.228V123.345C130.228 132.017 127.872 139.019 123.159 144.346C118.514 149.607 111.923 152.235 103.385 152.235ZM96.0081 82.1617H110.967V66.385C110.967 63.3116 110.42 60.6481 109.327 58.3943C108.303 56.0738 106.39 54.9111 103.59 54.9111C100.994 54.9111 99.0817 56.1046 97.8523 58.4967C96.6228 60.8171 96.0081 63.45 96.0081 66.385V82.1617ZM154.978 152.235C151.562 152.235 148.694 151.144 146.371 148.957C144.049 146.769 142.307 144.003 141.146 140.658C139.985 137.242 139.404 133.795 139.404 130.311V38.5197H160.101V126.214C160.101 128.329 160.476 129.866 161.228 130.824C162.047 131.71 163.311 132.155 165.018 132.155C166.521 132.155 167.785 131.643 168.809 130.619C169.902 129.528 170.893 128.262 171.781 126.828V38.5197H192.477V150.596H171.781V141.171C169.322 143.491 166.555 145.919 163.482 148.444C160.408 150.97 157.573 152.235 154.978 152.235ZM202.639 150.596V38.5197H223.335V51.0181C223.745 48.2879 225.009 45.86 227.126 43.7445C229.244 41.629 231.805 39.954 234.811 38.7246C237.884 37.4953 240.958 36.8806 244.032 36.8806V59.8285C243.143 59.4853 242.187 59.2804 241.163 59.2138C240.206 59.0755 239.25 59.0089 238.294 59.0089C233.786 59.0089 230.166 60.2383 227.434 62.697C224.701 65.1557 223.335 68.5006 223.335 72.7367V150.596H202.639ZM265.75 152.235C260.969 152.235 256.837 149.812 253.353 144.961C249.87 140.11 248.128 132.703 248.128 122.73C248.128 113.1 250.177 105.35 254.275 99.4751C258.442 93.5998 264.658 88.5134 272.922 84.2107C275.518 82.843 277.704 81.6136 279.479 80.5226C281.255 79.4315 282.348 78.4071 282.758 77.4492V65.1557C282.758 62.3538 282.417 59.9668 281.733 57.9845C281.119 55.9355 279.548 54.9111 277.02 54.9111C274.698 54.9111 273.127 56.0021 272.307 58.1894C271.488 60.3049 271.078 62.9684 271.078 66.1801V71.5073H250.382V66.7948C250.382 60.6481 251.577 55.3567 253.968 50.9157C256.427 46.4081 259.74 42.9607 263.906 40.5686C268.141 38.1099 272.922 36.8806 278.25 36.8806C283.373 36.8806 287.813 38.0741 291.569 40.4662C295.326 42.7866 298.229 46.0341 300.278 50.1986C302.396 54.2964 303.454 59.0089 303.454 64.3361V131.131C303.454 136.115 303.591 140.008 303.864 142.81C304.137 145.54 304.479 148.137 304.888 150.596H284.602C283.714 149.505 283.168 147.896 282.963 145.781C282.827 143.665 282.758 142.262 282.758 141.58H281.324C279.616 144.72 277.43 147.282 274.766 149.264C272.171 151.246 269.166 152.235 265.75 152.235ZM274.152 131.951C276.542 131.951 278.557 131.131 280.197 129.492C281.904 127.853 282.758 126.075 282.758 124.165V97.5286C277.772 99.6441 274.118 102.856 271.795 107.159C269.541 111.395 268.414 116.174 268.414 121.501C268.414 123.821 268.858 126.147 269.746 128.467C270.634 130.788 272.103 131.951 274.152 131.951ZM316.125 150.596V0H336.822V150.596H316.125ZM366.356 150.596L346.07 0H366.561L375.372 78.2688L375.782 83.1862H377.421L378.036 78.2688L387.462 0H403.445L412.871 78.2688L413.486 83.1862H415.125L415.535 78.2688L424.346 0H444.837L424.551 150.596H407.338L397.093 79.2933L395.863 70.4829H395.044L393.814 79.2933L383.569 150.596H366.356ZM478.59 152.235C470.325 152.235 463.803 149.402 459.021 143.732C454.308 137.995 451.951 130.993 451.951 122.73V66.385C451.951 57.6413 454.308 50.5418 459.021 45.0763C463.734 39.6108 470.325 36.8806 478.795 36.8806C484.328 36.8806 489.075 38.1458 493.036 40.6711C497.066 43.1964 500.14 46.6488 502.257 51.0181C504.376 55.3209 505.432 60.2383 505.432 65.7704V98.3482H471.213V122.73C471.213 125.532 471.828 128.124 473.057 130.516C474.356 132.837 476.268 133.999 478.795 133.999C481.459 133.999 483.337 132.908 484.43 130.721C485.591 128.534 486.172 125.87 486.172 122.73V110.437H505.432V123.345C505.432 132.017 503.077 139.019 498.364 144.346C493.72 149.607 487.128 152.235 478.59 152.235ZM471.213 82.1617H486.172V66.385C486.172 63.3116 485.626 60.6481 484.533 58.3943C483.508 56.0738 481.596 54.9111 478.795 54.9111C476.2 54.9111 474.287 56.1046 473.057 58.4967C471.828 60.8171 471.213 63.45 471.213 66.385V82.1617ZM551.701 152.235C548.832 152.235 546.066 151.349 543.402 149.571C540.738 147.727 538.038 145.612 535.308 143.22V150.596H514.612V0H535.308V45.8958C537.9 43.4371 540.635 41.3216 543.504 39.5442C546.373 37.7667 549.103 36.8806 551.701 36.8806C555.251 36.8806 558.186 37.9716 560.512 40.1589C562.899 42.2744 564.677 45.0097 565.84 48.3545C567.069 51.6994 567.684 55.1826 567.684 58.804V130.311C567.684 133.933 567.069 137.447 565.84 140.863C564.61 144.208 562.797 146.943 560.409 149.059C558.017 151.174 555.112 152.235 551.701 152.235ZM541.865 132.77C543.432 132.77 544.662 132.12 545.553 130.824C546.506 129.528 546.988 127.919 546.988 126.009V63.1068C546.988 61.1244 546.506 59.5212 545.553 58.2918C544.662 56.9959 543.432 56.3453 541.865 56.3453C540.359 56.3453 538.894 57.0624 537.459 58.4967C536.025 59.9309 535.308 61.4676 535.308 63.1068V126.009C535.308 127.919 536.025 129.528 537.459 130.824C538.894 132.12 540.359 132.77 541.865 132.77Z" fill="white"/>
</svg>
